PERFORMER "Markus Schulz"
TITLE "Essential Mix (2008-12-06) [TMB]"
FILE "Essential Mix - 2008-12-06 - Markus Schulz.mp3" MP3
  TRACK 01 AUDIO
    PERFORMER "Essential Mix"
    TITLE "Intro"
    INDEX 01 00:00:00
  TRACK 02 AUDIO
    PERFORMER "Pink Floyd"
    TITLE "Is There Anybody Out There? (Markus Schulz Intro Mix)"
    INDEX 01 01:41:38
  TRACK 03 AUDIO
    PERFORMER "Dakota"
    TITLE "The Doorway"
    INDEX 01 06:21:71
  TRACK 04 AUDIO
    PERFORMER "Chance Jumpers"
    TITLE "Korona (Markus Schulz Big Room Reconstruction)"
    INDEX 01 09:49:24
  TRACK 05 AUDIO
    PERFORMER "Moonbeam & Tyler Michaud feat. Fisher"
    TITLE "Love Never Dies (Dub)"
    INDEX 01 14:45:35
  TRACK 06 AUDIO
    PERFORMER "Ronski Speed"
    TITLE "Overfloat"
    INDEX 01 18:12:14
  TRACK 07 AUDIO
    PERFORMER "Sied van Riel & R.O.R."
    TITLE "Closer To You (Plastic Angel vs. Store N Forward Remix)"
    INDEX 01 21:08:66
  TRACK 08 AUDIO
    PERFORMER "Mike Foyle pres. Statica"
    TITLE "Bittersweet Nightshade (Markus Schulz Return To Coldharbour Remix)"
    INDEX 01 26:02:36
  TRACK 09 AUDIO
    PERFORMER "Beat Service"
    TITLE "Nectar (Juicy Mix)"
    INDEX 01 33:35:22
  TRACK 10 AUDIO
    PERFORMER "Paul van Dyk & Alex M.O.R.P.H."
    TITLE "In Circles (Alex M.O.R.P.H. Remix) (Markus Schulz Big Room Reconstruction)"
    INDEX 01 40:00:23
  TRACK 11 AUDIO
    PERFORMER "Robert Burian"
    TITLE "Vegas (Gleave Remix)"
    INDEX 01 44:13:39
  TRACK 12 AUDIO
    PERFORMER "Cass & Slide"
    TITLE "Perception (Remix)"
    INDEX 01 50:07:51
  TRACK 13 AUDIO
    PERFORMER "Dakota"
    TITLE "Day Off In Lima"
    INDEX 01 60:14:59
  TRACK 14 AUDIO
    PERFORMER "Danilo Ercole"
    TITLE "Harbour"
    INDEX 01 67:01:25
  TRACK 15 AUDIO
    PERFORMER "Mr Sam feat. clAud9"
    TITLE "Cygnes (Markus Schulz Big Room Reconstruction)"
    INDEX 01 71:21:41
  TRACK 16 AUDIO
    PERFORMER "Marc Vision vs. Markus Schulz vs. Wippenberg"
    TITLE "Chakalaka's New World Gate (Markus Schulz Mashup)"
    INDEX 01 75:20:02
  TRACK 17 AUDIO
    PERFORMER "Rank 1"
    TITLE "Airwave (Remix)"
    INDEX 01 78:27:55
  TRACK 18 AUDIO
    PERFORMER "Rex Mundi"
    TITLE "Scorpion"
    INDEX 01 84:27:43
  TRACK 19 AUDIO
    PERFORMER "Rex Mundi"
    TITLE "The Wish"
    INDEX 01 85:25:02
  TRACK 20 AUDIO
    PERFORMER "D:Folt feat. Marcie"
    TITLE "I Come Running (tyDi Remix) (Markus Schulz Edit)"
    INDEX 01 91:08:65
  TRACK 21 AUDIO
    PERFORMER "Ilya Soloviev & Paul Miller"
    TITLE "Summer Lover (Orjan Nilsen Remix)"
    INDEX 01 93:46:04
  TRACK 22 AUDIO
    PERFORMER "Thomas Sagstad & Tyler Michaud"
    TITLE "Renegades (Elevation Remix)"
    INDEX 01 98:20:28
  TRACK 23 AUDIO
    PERFORMER "Derelict"
    TITLE "Rescue Me (Markus Schulz Big Room Reconstruction)"
    INDEX 01 104:28:31
  TRACK 24 AUDIO
    PERFORMER "Randy Boyer & Eric Tadla"
    TITLE "Aden's Dream"
    INDEX 01 109:55:40
  TRACK 25 AUDIO
    PERFORMER "Markus Schulz"
    TITLE "The New World (Markus Schulz Return To Coldharbour Mix)"
    INDEX 01 113:43:07